<?xml version="1.0" standalone="no"?>
<!DOCTYPE svg PUBLIC "-//W3C//DTD SVG 20010904//EN"
 "http://www.w3.org/TR/2001/REC-SVG-20010904/DTD/svg10.dtd">
<svg version="1.0" xmlns="http://www.w3.org/2000/svg"
 width="70.000000pt" height="70.000000pt" viewBox="0 0 70.000000 70.000000"
 preserveAspectRatio="xMidYMid meet">
<metadata>
Created by Taylor Shuler
</metadata>
<g transform="translate(0.000000,70.000000) scale(0.100000,-0.100000)"
fill="#000000" stroke="none">
<path d="M2 548 l3 -153 86 -1 c47 0 94 -4 103 -7 12 -5 15 -3 10 6 -6 9 -4 9
8 -1 15 -12 17 -50 3 -71 -3 -6 -1 -11 6 -11 8 0 7 -5 -2 -17 -11 -13 -11 -17
-1 -21 10 -3 10 -7 1 -18 -9 -11 -8 -14 1 -14 8 0 10 -3 7 -7 -4 -3 -2 -12 5
-20 8 -11 7 -12 -5 -7 -20 7 -17 -23 4 -38 11 -8 11 -9 -3 -4 -23 7 -23 -2 -1
-26 13 -15 14 -18 2 -13 -10 4 -15 -1 -16 -15 -1 -11 2 -20 8 -20 5 0 9 -5 9
-11 0 -5 -5 -7 -12 -3 -7 4 -8 3 -4 -5 4 -6 2 -19 -6 -28 -8 -10 -8 -14 -1
-10 17 10 28 -13 12 -24 -8 -5 41 -9 123 -9 93 0 139 4 144 12 5 7 2 8 -7 3
-11 -6 -11 -5 -2 5 8 8 9 20 2 37 -5 15 -5 22 0 18 6 -3 9 4 8 15 -1 11 -5 20
-10 20 -5 0 -3 8 4 17 12 15 12 16 -1 8 -9 -5 -7 1 5 15 11 13 15 20 9 17 -7
-4 -14 0 -18 8 -3 8 -1 15 4 15 6 0 10 5 10 11 0 5 -4 8 -8 5 -4 -2 -8 4 -8
14 0 10 4 16 8 14 4 -3 8 0 8 5 0 6 -6 11 -12 11 -8 0 -9 3 -3 8 12 8 16 42 6
42 -4 0 -8 7 -8 15 0 8 4 12 9 9 4 -3 8 -1 8 5 0 5 -4 12 -9 15 -15 10 -5 41
13 39 12 -1 15 4 11 14 -4 12 -2 13 7 6 7 -5 22 -9 33 -8 11 0 33 -3 48 -7 20
-5 30 -3 34 8 4 12 8 12 20 -3 8 -10 12 -13 9 -7 -8 16 19 25 33 11 8 -8 11
30 11 146 l0 157 -350 0 -351 0 3 -152z"/>
<path d="M203 345 c0 -8 4 -12 9 -9 5 3 6 10 3 15 -9 13 -12 11 -12 -6z"/>
</g>
</svg>
